<svg xmlns="http://www.w3.org/2000/svg" width="41.81" height="33.515" viewBox="0 0 41.81 33.515">
  <g id="Logo" transform="translate(0 0.316)">
    <path id="Path_11" data-name="Path 11" d="M85.869,198H72l12.237,31.311H98.106Z" transform="translate(-72 -196.112)" fill="#8591d9"/>
    <path id="Path_12" data-name="Path 12" d="M632.14,198h13.869l-12.237,31.311H619.9Z" transform="translate(-607.666 -196.112)" fill="#bfc6f2"/>
    <path id="Path_13" data-name="Path 13" d="M930.381,211.521h17.336l5.3-13.521H935.683Z" transform="translate(-911.209 -196.112)" fill="#8591d9"/>
    <path id="Path_60" data-name="Path 60" d="M1.988,0A1.988,1.988,0,1,1,0,1.988,1.988,1.988,0,0,1,1.988,0Z" transform="translate(30.808 -0.316)" fill="#bfc6f2"/>
    <path id="Path_14" data-name="Path 14" d="M943,894.283,930,892h13.9Z" transform="translate(-910.837 -876.592)" fill="#6974b1"/>
    <path id="Path_15" data-name="Path 15" d="M620,748.278l5.659-21,1.264,3.209Z" transform="translate(-607.761 -715.083)" fill="#6974b1"/>
  </g>
</svg>
