<svg xmlns="http://www.w3.org/2000/svg" xmlns:xlink="http://www.w3.org/1999/xlink" width="1114.738" height="849.572" viewBox="0 0 1114.738 849.572">
  <defs>
    <clipPath id="clip-path">
      <rect width="636" height="577" fill="none"/>
    </clipPath>
  </defs>
  <g id="Group_38" data-name="Group 38" transform="translate(74.128 -165.268)">
    <path id="Path_16" data-name="Path 16" d="M2418.391,314.739c85.119-37.895,110.937-93.768,272.059-92.447s168.906,115.892,214.264,159.965,167.573,237.31,26.459,347.555-116.017,246.972-288.491,261.625-193.441-54.243-344.948,0-194.346-138.994-183.006-218.271,89.457-137.5,90.716-180.85-43.765-156.1,28.052-224.75S2333.272,352.633,2418.391,314.739Z" transform="translate(-2048.643 -57)" fill="#49b6eb"/>
    <path id="Path_17" data-name="Path 17" d="M1952.042,410.26s136.626-99.839,252.569,27.375,286.655,26.832,303.806,19.21S2719,290.1,2809.516,321.541s164.842,126.729,148.644,244.882-2.858,169.607,26.68,219.155,128.634,126.728,55.265,185.8-152.455-13.34-200.1-37.161-137.21-156.267-246.787-101-101.954,94.332-141.974,157.22-103.86,60.982-120.059-21.915S2320.706,769.379,2214.94,746.51s-168.654,0-168.654,0l-54.888,18.9-39.526,11.657Z" transform="translate(-2026 -19.676)" fill="#69dbb7"/>
    <g id="Grid" transform="translate(242 292)" clip-path="url(#clip-path)">
      <g transform="translate(-100 -100)">
        <g id="Rectangle_1" data-name="Rectangle 1" transform="translate(153 89)" fill="none" stroke="#fff" stroke-linejoin="bevel" stroke-width="3">
          <rect width="110" height="110" stroke="none"/>
          <rect x="1.5" y="1.5" width="107" height="107" fill="none"/>
        </g>
        <g id="Rectangle_7" data-name="Rectangle 7" transform="translate(112 88)" fill="none" stroke="#fff" stroke-linejoin="bevel" stroke-width="3">
          <rect width="76" height="4" stroke="none"/>
          <rect x="1.5" y="1.5" width="73" height="1" fill="none"/>
        </g>
      </g>
      <g transform="translate(8 -100)">
        <g id="Rectangle_1-2" data-name="Rectangle 1" transform="translate(153 89)" fill="none" stroke="#fff" stroke-linejoin="bevel" stroke-width="3">
          <rect width="110" height="110" stroke="none"/>
          <rect x="1.5" y="1.5" width="107" height="107" fill="none"/>
        </g>
        <g id="Rectangle_7-2" data-name="Rectangle 7" transform="translate(112 88)" fill="none" stroke="#fff" stroke-linejoin="bevel" stroke-width="3">
          <rect width="76" height="4" stroke="none"/>
          <rect x="1.5" y="1.5" width="73" height="1" fill="none"/>
        </g>
      </g>
      <g transform="translate(116 -100)">
        <g id="Rectangle_1-3" data-name="Rectangle 1" transform="translate(153 89)" fill="none" stroke="#fff" stroke-linejoin="bevel" stroke-width="3">
          <rect width="110" height="110" stroke="none"/>
          <rect x="1.5" y="1.5" width="107" height="107" fill="none"/>
        </g>
        <g id="Rectangle_7-3" data-name="Rectangle 7" transform="translate(112 88)" fill="none" stroke="#fff" stroke-linejoin="bevel" stroke-width="3">
          <rect width="76" height="4" stroke="none"/>
          <rect x="1.5" y="1.5" width="73" height="1" fill="none"/>
        </g>
      </g>
      <g transform="translate(224 -100)">
        <g id="Rectangle_1-4" data-name="Rectangle 1" transform="translate(153 89)" fill="none" stroke="#fff" stroke-linejoin="bevel" stroke-width="3">
          <rect width="110" height="110" stroke="none"/>
          <rect x="1.5" y="1.5" width="107" height="107" fill="none"/>
        </g>
        <g id="Rectangle_7-4" data-name="Rectangle 7" transform="translate(112 88)" fill="none" stroke="#fff" stroke-linejoin="bevel" stroke-width="3">
          <rect width="76" height="4" stroke="none"/>
          <rect x="1.5" y="1.5" width="73" height="1" fill="none"/>
        </g>
      </g>
      <g transform="translate(332 -100)">
        <g id="Rectangle_1-5" data-name="Rectangle 1" transform="translate(153 89)" fill="none" stroke="#fff" stroke-linejoin="bevel" stroke-width="3">
          <rect width="110" height="110" stroke="none"/>
          <rect x="1.5" y="1.5" width="107" height="107" fill="none"/>
        </g>
        <g id="Rectangle_7-5" data-name="Rectangle 7" transform="translate(112 88)" fill="none" stroke="#fff" stroke-linejoin="bevel" stroke-width="3">
          <rect width="76" height="4" stroke="none"/>
          <rect x="1.5" y="1.5" width="73" height="1" fill="none"/>
        </g>
      </g>
      <g transform="translate(440 -100)">
        <g id="Rectangle_1-6" data-name="Rectangle 1" transform="translate(153 89)" fill="none" stroke="#fff" stroke-linejoin="bevel" stroke-width="3">
          <rect width="110" height="110" stroke="none"/>
          <rect x="1.5" y="1.5" width="107" height="107" fill="none"/>
        </g>
        <g id="Rectangle_7-6" data-name="Rectangle 7" transform="translate(112 88)" fill="none" stroke="#fff" stroke-linejoin="bevel" stroke-width="3">
          <rect width="76" height="4" stroke="none"/>
          <rect x="1.5" y="1.5" width="73" height="1" fill="none"/>
        </g>
      </g>
      <g transform="translate(-100 8)">
        <g id="Rectangle_1-7" data-name="Rectangle 1" transform="translate(153 89)" fill="none" stroke="#fff" stroke-linejoin="bevel" stroke-width="3">
          <rect width="110" height="110" stroke="none"/>
          <rect x="1.5" y="1.5" width="107" height="107" fill="none"/>
        </g>
        <g id="Rectangle_7-7" data-name="Rectangle 7" transform="translate(112 88)" fill="none" stroke="#fff" stroke-linejoin="bevel" stroke-width="3">
          <rect width="76" height="4" stroke="none"/>
          <rect x="1.5" y="1.5" width="73" height="1" fill="none"/>
        </g>
      </g>
      <g transform="translate(8 8)">
        <g id="Rectangle_1-8" data-name="Rectangle 1" transform="translate(153 89)" fill="none" stroke="#fff" stroke-linejoin="bevel" stroke-width="3">
          <rect width="110" height="110" stroke="none"/>
          <rect x="1.5" y="1.5" width="107" height="107" fill="none"/>
        </g>
        <g id="Rectangle_7-8" data-name="Rectangle 7" transform="translate(112 88)" fill="none" stroke="#fff" stroke-linejoin="bevel" stroke-width="3">
          <rect width="76" height="4" stroke="none"/>
          <rect x="1.5" y="1.5" width="73" height="1" fill="none"/>
        </g>
      </g>
      <g transform="translate(116 8)">
        <g id="Rectangle_1-9" data-name="Rectangle 1" transform="translate(153 89)" fill="none" stroke="#fff" stroke-linejoin="bevel" stroke-width="3">
          <rect width="110" height="110" stroke="none"/>
          <rect x="1.5" y="1.5" width="107" height="107" fill="none"/>
        </g>
        <g id="Rectangle_7-9" data-name="Rectangle 7" transform="translate(112 88)" fill="none" stroke="#fff" stroke-linejoin="bevel" stroke-width="3">
          <rect width="76" height="4" stroke="none"/>
          <rect x="1.5" y="1.5" width="73" height="1" fill="none"/>
        </g>
      </g>
      <g transform="translate(224 8)">
        <g id="Rectangle_1-10" data-name="Rectangle 1" transform="translate(153 89)" fill="none" stroke="#fff" stroke-linejoin="bevel" stroke-width="3">
          <rect width="110" height="110" stroke="none"/>
          <rect x="1.5" y="1.5" width="107" height="107" fill="none"/>
        </g>
        <g id="Rectangle_7-10" data-name="Rectangle 7" transform="translate(112 88)" fill="none" stroke="#fff" stroke-linejoin="bevel" stroke-width="3">
          <rect width="76" height="4" stroke="none"/>
          <rect x="1.5" y="1.5" width="73" height="1" fill="none"/>
        </g>
      </g>
      <g transform="translate(332 8)">
        <g id="Rectangle_1-11" data-name="Rectangle 1" transform="translate(153 89)" fill="none" stroke="#fff" stroke-linejoin="bevel" stroke-width="3">
          <rect width="110" height="110" stroke="none"/>
          <rect x="1.5" y="1.5" width="107" height="107" fill="none"/>
        </g>
        <g id="Rectangle_7-11" data-name="Rectangle 7" transform="translate(112 88)" fill="none" stroke="#fff" stroke-linejoin="bevel" stroke-width="3">
          <rect width="76" height="4" stroke="none"/>
          <rect x="1.5" y="1.5" width="73" height="1" fill="none"/>
        </g>
      </g>
      <g transform="translate(440 8)">
        <g id="Rectangle_1-12" data-name="Rectangle 1" transform="translate(153 89)" fill="none" stroke="#fff" stroke-linejoin="bevel" stroke-width="3">
          <rect width="110" height="110" stroke="none"/>
          <rect x="1.5" y="1.5" width="107" height="107" fill="none"/>
        </g>
        <g id="Rectangle_7-12" data-name="Rectangle 7" transform="translate(112 88)" fill="none" stroke="#fff" stroke-linejoin="bevel" stroke-width="3">
          <rect width="76" height="4" stroke="none"/>
          <rect x="1.5" y="1.5" width="73" height="1" fill="none"/>
        </g>
      </g>
      <g transform="translate(-100 116)">
        <g id="Rectangle_1-13" data-name="Rectangle 1" transform="translate(153 89)" fill="none" stroke="#fff" stroke-linejoin="bevel" stroke-width="3">
          <rect width="110" height="110" stroke="none"/>
          <rect x="1.5" y="1.5" width="107" height="107" fill="none"/>
        </g>
        <g id="Rectangle_7-13" data-name="Rectangle 7" transform="translate(112 88)" fill="none" stroke="#fff" stroke-linejoin="bevel" stroke-width="3">
          <rect width="76" height="4" stroke="none"/>
          <rect x="1.5" y="1.5" width="73" height="1" fill="none"/>
        </g>
      </g>
      <g transform="translate(8 116)">
        <g id="Rectangle_1-14" data-name="Rectangle 1" transform="translate(153 89)" fill="none" stroke="#fff" stroke-linejoin="bevel" stroke-width="3">
          <rect width="110" height="110" stroke="none"/>
          <rect x="1.5" y="1.5" width="107" height="107" fill="none"/>
        </g>
        <g id="Rectangle_7-14" data-name="Rectangle 7" transform="translate(112 88)" fill="none" stroke="#fff" stroke-linejoin="bevel" stroke-width="3">
          <rect width="76" height="4" stroke="none"/>
          <rect x="1.5" y="1.5" width="73" height="1" fill="none"/>
        </g>
      </g>
      <g transform="translate(116 116)">
        <g id="Rectangle_1-15" data-name="Rectangle 1" transform="translate(153 89)" fill="none" stroke="#fff" stroke-linejoin="bevel" stroke-width="3">
          <rect width="110" height="110" stroke="none"/>
          <rect x="1.5" y="1.5" width="107" height="107" fill="none"/>
        </g>
        <g id="Rectangle_7-15" data-name="Rectangle 7" transform="translate(112 88)" fill="none" stroke="#fff" stroke-linejoin="bevel" stroke-width="3">
          <rect width="76" height="4" stroke="none"/>
          <rect x="1.5" y="1.5" width="73" height="1" fill="none"/>
        </g>
      </g>
      <g transform="translate(224 116)">
        <g id="Rectangle_1-16" data-name="Rectangle 1" transform="translate(153 89)" fill="none" stroke="#fff" stroke-linejoin="bevel" stroke-width="3">
          <rect width="110" height="110" stroke="none"/>
          <rect x="1.5" y="1.5" width="107" height="107" fill="none"/>
        </g>
        <g id="Rectangle_7-16" data-name="Rectangle 7" transform="translate(112 88)" fill="none" stroke="#fff" stroke-linejoin="bevel" stroke-width="3">
          <rect width="76" height="4" stroke="none"/>
          <rect x="1.5" y="1.5" width="73" height="1" fill="none"/>
        </g>
      </g>
      <g transform="translate(332 116)">
        <g id="Rectangle_1-17" data-name="Rectangle 1" transform="translate(153 89)" fill="none" stroke="#fff" stroke-linejoin="bevel" stroke-width="3">
          <rect width="110" height="110" stroke="none"/>
          <rect x="1.5" y="1.5" width="107" height="107" fill="none"/>
        </g>
        <g id="Rectangle_7-17" data-name="Rectangle 7" transform="translate(112 88)" fill="none" stroke="#fff" stroke-linejoin="bevel" stroke-width="3">
          <rect width="76" height="4" stroke="none"/>
          <rect x="1.5" y="1.5" width="73" height="1" fill="none"/>
        </g>
      </g>
      <g transform="translate(440 116)">
        <g id="Rectangle_1-18" data-name="Rectangle 1" transform="translate(153 89)" fill="none" stroke="#fff" stroke-linejoin="bevel" stroke-width="3">
          <rect width="110" height="110" stroke="none"/>
          <rect x="1.5" y="1.5" width="107" height="107" fill="none"/>
        </g>
        <g id="Rectangle_7-18" data-name="Rectangle 7" transform="translate(112 88)" fill="none" stroke="#fff" stroke-linejoin="bevel" stroke-width="3">
          <rect width="76" height="4" stroke="none"/>
          <rect x="1.5" y="1.5" width="73" height="1" fill="none"/>
        </g>
      </g>
      <g transform="translate(-100 224)">
        <g id="Rectangle_1-19" data-name="Rectangle 1" transform="translate(153 89)" fill="none" stroke="#fff" stroke-linejoin="bevel" stroke-width="3">
          <rect width="110" height="110" stroke="none"/>
          <rect x="1.5" y="1.5" width="107" height="107" fill="none"/>
        </g>
        <g id="Rectangle_7-19" data-name="Rectangle 7" transform="translate(112 88)" fill="none" stroke="#fff" stroke-linejoin="bevel" stroke-width="3">
          <rect width="76" height="4" stroke="none"/>
          <rect x="1.5" y="1.5" width="73" height="1" fill="none"/>
        </g>
      </g>
      <g transform="translate(8 224)">
        <g id="Rectangle_1-20" data-name="Rectangle 1" transform="translate(153 89)" fill="none" stroke="#fff" stroke-linejoin="bevel" stroke-width="3">
          <rect width="110" height="110" stroke="none"/>
          <rect x="1.5" y="1.5" width="107" height="107" fill="none"/>
        </g>
        <g id="Rectangle_7-20" data-name="Rectangle 7" transform="translate(112 88)" fill="none" stroke="#fff" stroke-linejoin="bevel" stroke-width="3">
          <rect width="76" height="4" stroke="none"/>
          <rect x="1.5" y="1.5" width="73" height="1" fill="none"/>
        </g>
      </g>
      <g transform="translate(116 224)">
        <g id="Rectangle_1-21" data-name="Rectangle 1" transform="translate(153 89)" fill="none" stroke="#fff" stroke-linejoin="bevel" stroke-width="3">
          <rect width="110" height="110" stroke="none"/>
          <rect x="1.5" y="1.5" width="107" height="107" fill="none"/>
        </g>
        <g id="Rectangle_7-21" data-name="Rectangle 7" transform="translate(112 88)" fill="none" stroke="#fff" stroke-linejoin="bevel" stroke-width="3">
          <rect width="76" height="4" stroke="none"/>
          <rect x="1.5" y="1.5" width="73" height="1" fill="none"/>
        </g>
      </g>
      <g transform="translate(224 224)">
        <g id="Rectangle_1-22" data-name="Rectangle 1" transform="translate(153 89)" fill="none" stroke="#fff" stroke-linejoin="bevel" stroke-width="3">
          <rect width="110" height="110" stroke="none"/>
          <rect x="1.5" y="1.5" width="107" height="107" fill="none"/>
        </g>
        <g id="Rectangle_7-22" data-name="Rectangle 7" transform="translate(112 88)" fill="none" stroke="#fff" stroke-linejoin="bevel" stroke-width="3">
          <rect width="76" height="4" stroke="none"/>
          <rect x="1.5" y="1.5" width="73" height="1" fill="none"/>
        </g>
      </g>
      <g transform="translate(332 224)">
        <g id="Rectangle_1-23" data-name="Rectangle 1" transform="translate(153 89)" fill="none" stroke="#fff" stroke-linejoin="bevel" stroke-width="3">
          <rect width="110" height="110" stroke="none"/>
          <rect x="1.5" y="1.5" width="107" height="107" fill="none"/>
        </g>
        <g id="Rectangle_7-23" data-name="Rectangle 7" transform="translate(112 88)" fill="none" stroke="#fff" stroke-linejoin="bevel" stroke-width="3">
          <rect width="76" height="4" stroke="none"/>
          <rect x="1.5" y="1.5" width="73" height="1" fill="none"/>
        </g>
      </g>
      <g transform="translate(440 224)">
        <g id="Rectangle_1-24" data-name="Rectangle 1" transform="translate(153 89)" fill="none" stroke="#fff" stroke-linejoin="bevel" stroke-width="3">
          <rect width="110" height="110" stroke="none"/>
          <rect x="1.5" y="1.5" width="107" height="107" fill="none"/>
        </g>
        <g id="Rectangle_7-24" data-name="Rectangle 7" transform="translate(112 88)" fill="none" stroke="#fff" stroke-linejoin="bevel" stroke-width="3">
          <rect width="76" height="4" stroke="none"/>
          <rect x="1.5" y="1.5" width="73" height="1" fill="none"/>
        </g>
      </g>
      <g transform="translate(-100 332)">
        <g id="Rectangle_1-25" data-name="Rectangle 1" transform="translate(153 89)" fill="none" stroke="#fff" stroke-linejoin="bevel" stroke-width="3">
          <rect width="110" height="110" stroke="none"/>
          <rect x="1.5" y="1.5" width="107" height="107" fill="none"/>
        </g>
        <g id="Rectangle_7-25" data-name="Rectangle 7" transform="translate(112 88)" fill="none" stroke="#fff" stroke-linejoin="bevel" stroke-width="3">
          <rect width="76" height="4" stroke="none"/>
          <rect x="1.5" y="1.5" width="73" height="1" fill="none"/>
        </g>
      </g>
      <g transform="translate(8 332)">
        <g id="Rectangle_1-26" data-name="Rectangle 1" transform="translate(153 89)" fill="none" stroke="#fff" stroke-linejoin="bevel" stroke-width="3">
          <rect width="110" height="110" stroke="none"/>
          <rect x="1.5" y="1.5" width="107" height="107" fill="none"/>
        </g>
        <g id="Rectangle_7-26" data-name="Rectangle 7" transform="translate(112 88)" fill="none" stroke="#fff" stroke-linejoin="bevel" stroke-width="3">
          <rect width="76" height="4" stroke="none"/>
          <rect x="1.5" y="1.5" width="73" height="1" fill="none"/>
        </g>
      </g>
      <g transform="translate(116 332)">
        <g id="Rectangle_1-27" data-name="Rectangle 1" transform="translate(153 89)" fill="none" stroke="#fff" stroke-linejoin="bevel" stroke-width="3">
          <rect width="110" height="110" stroke="none"/>
          <rect x="1.5" y="1.5" width="107" height="107" fill="none"/>
        </g>
        <g id="Rectangle_7-27" data-name="Rectangle 7" transform="translate(112 88)" fill="none" stroke="#fff" stroke-linejoin="bevel" stroke-width="3">
          <rect width="76" height="4" stroke="none"/>
          <rect x="1.5" y="1.5" width="73" height="1" fill="none"/>
        </g>
      </g>
      <g transform="translate(224 332)">
        <g id="Rectangle_1-28" data-name="Rectangle 1" transform="translate(153 89)" fill="none" stroke="#fff" stroke-linejoin="bevel" stroke-width="3">
          <rect width="110" height="110" stroke="none"/>
          <rect x="1.5" y="1.5" width="107" height="107" fill="none"/>
        </g>
        <g id="Rectangle_7-28" data-name="Rectangle 7" transform="translate(112 88)" fill="none" stroke="#fff" stroke-linejoin="bevel" stroke-width="3">
          <rect width="76" height="4" stroke="none"/>
          <rect x="1.5" y="1.5" width="73" height="1" fill="none"/>
        </g>
      </g>
      <g transform="translate(332 332)">
        <g id="Rectangle_1-29" data-name="Rectangle 1" transform="translate(153 89)" fill="none" stroke="#fff" stroke-linejoin="bevel" stroke-width="3">
          <rect width="110" height="110" stroke="none"/>
          <rect x="1.5" y="1.5" width="107" height="107" fill="none"/>
        </g>
        <g id="Rectangle_7-29" data-name="Rectangle 7" transform="translate(112 88)" fill="none" stroke="#fff" stroke-linejoin="bevel" stroke-width="3">
          <rect width="76" height="4" stroke="none"/>
          <rect x="1.5" y="1.5" width="73" height="1" fill="none"/>
        </g>
      </g>
      <g transform="translate(440 332)">
        <g id="Rectangle_1-30" data-name="Rectangle 1" transform="translate(153 89)" fill="none" stroke="#fff" stroke-linejoin="bevel" stroke-width="3">
          <rect width="110" height="110" stroke="none"/>
          <rect x="1.5" y="1.5" width="107" height="107" fill="none"/>
        </g>
        <g id="Rectangle_7-30" data-name="Rectangle 7" transform="translate(112 88)" fill="none" stroke="#fff" stroke-linejoin="bevel" stroke-width="3">
          <rect width="76" height="4" stroke="none"/>
          <rect x="1.5" y="1.5" width="73" height="1" fill="none"/>
        </g>
      </g>
      <g transform="translate(-100 440)">
        <g id="Rectangle_1-31" data-name="Rectangle 1" transform="translate(153 89)" fill="none" stroke="#fff" stroke-linejoin="bevel" stroke-width="3">
          <rect width="110" height="110" stroke="none"/>
          <rect x="1.5" y="1.5" width="107" height="107" fill="none"/>
        </g>
        <g id="Rectangle_7-31" data-name="Rectangle 7" transform="translate(112 88)" fill="none" stroke="#fff" stroke-linejoin="bevel" stroke-width="3">
          <rect width="76" height="4" stroke="none"/>
          <rect x="1.5" y="1.5" width="73" height="1" fill="none"/>
        </g>
      </g>
      <g transform="translate(8 440)">
        <g id="Rectangle_1-32" data-name="Rectangle 1" transform="translate(153 89)" fill="none" stroke="#fff" stroke-linejoin="bevel" stroke-width="3">
          <rect width="110" height="110" stroke="none"/>
          <rect x="1.5" y="1.5" width="107" height="107" fill="none"/>
        </g>
        <g id="Rectangle_7-32" data-name="Rectangle 7" transform="translate(112 88)" fill="none" stroke="#fff" stroke-linejoin="bevel" stroke-width="3">
          <rect width="76" height="4" stroke="none"/>
          <rect x="1.5" y="1.5" width="73" height="1" fill="none"/>
        </g>
      </g>
      <g transform="translate(116 440)">
        <g id="Rectangle_1-33" data-name="Rectangle 1" transform="translate(153 89)" fill="none" stroke="#fff" stroke-linejoin="bevel" stroke-width="3">
          <rect width="110" height="110" stroke="none"/>
          <rect x="1.5" y="1.5" width="107" height="107" fill="none"/>
        </g>
        <g id="Rectangle_7-33" data-name="Rectangle 7" transform="translate(112 88)" fill="none" stroke="#fff" stroke-linejoin="bevel" stroke-width="3">
          <rect width="76" height="4" stroke="none"/>
          <rect x="1.5" y="1.5" width="73" height="1" fill="none"/>
        </g>
      </g>
      <g transform="translate(224 440)">
        <g id="Rectangle_1-34" data-name="Rectangle 1" transform="translate(153 89)" fill="none" stroke="#fff" stroke-linejoin="bevel" stroke-width="3">
          <rect width="110" height="110" stroke="none"/>
          <rect x="1.5" y="1.5" width="107" height="107" fill="none"/>
        </g>
        <g id="Rectangle_7-34" data-name="Rectangle 7" transform="translate(112 88)" fill="none" stroke="#fff" stroke-linejoin="bevel" stroke-width="3">
          <rect width="76" height="4" stroke="none"/>
          <rect x="1.5" y="1.5" width="73" height="1" fill="none"/>
        </g>
      </g>
      <g transform="translate(332 440)">
        <g id="Rectangle_1-35" data-name="Rectangle 1" transform="translate(153 89)" fill="none" stroke="#fff" stroke-linejoin="bevel" stroke-width="3">
          <rect width="110" height="110" stroke="none"/>
          <rect x="1.5" y="1.5" width="107" height="107" fill="none"/>
        </g>
        <g id="Rectangle_7-35" data-name="Rectangle 7" transform="translate(112 88)" fill="none" stroke="#fff" stroke-linejoin="bevel" stroke-width="3">
          <rect width="76" height="4" stroke="none"/>
          <rect x="1.5" y="1.5" width="73" height="1" fill="none"/>
        </g>
      </g>
      <g transform="translate(440 440)">
        <g id="Rectangle_1-36" data-name="Rectangle 1" transform="translate(153 89)" fill="none" stroke="#fff" stroke-linejoin="bevel" stroke-width="3">
          <rect width="110" height="110" stroke="none"/>
          <rect x="1.5" y="1.5" width="107" height="107" fill="none"/>
        </g>
        <g id="Rectangle_7-36" data-name="Rectangle 7" transform="translate(112 88)" fill="none" stroke="#fff" stroke-linejoin="bevel" stroke-width="3">
          <rect width="76" height="4" stroke="none"/>
          <rect x="1.5" y="1.5" width="73" height="1" fill="none"/>
        </g>
      </g>
    </g>
    <g id="Sticky_Note_Orange_" data-name="Sticky Note (Orange)" transform="translate(465.243 490.328)">
      <g id="content" transform="translate(-0.243 30.672)" fill="#ebc047" stroke="#fff" stroke-width="4">
        <rect width="282" height="281" rx="2" stroke="none"/>
        <rect x="-2" y="-2" width="286" height="285" rx="4" fill="none"/>
      </g>
      <rect id="header" width="282" height="37" rx="2" transform="translate(-0.243 30.672)" fill="#caa53d"/>
      <circle id="white_circle" data-name="white circle" cx="30.5" cy="30.5" r="30.5" transform="translate(109.757 -0.328)" fill="#f5f5f5"/>
      <circle id="inner_circle" data-name="inner circle" cx="24.5" cy="24.5" r="24.5" transform="translate(115.757 5.672)" fill="#c8a33c"/>
    </g>
    <g id="Sticky_Note_Blue_" data-name="Sticky Note (Blue)" transform="translate(677.678 278.842)">
      <g id="content-2" data-name="content" transform="translate(0.322 69.158)" fill="#49b6eb" stroke="#fff" stroke-width="4">
        <rect width="281" height="281" rx="2" stroke="none"/>
        <rect x="-2" y="-2" width="285" height="285" rx="4" fill="none"/>
      </g>
      <rect id="header-2" data-name="header" width="281" height="38" rx="2" transform="translate(0.322 69.158)" fill="#3c9ac8"/>
      <g id="Menu" transform="translate(0 0)" fill="#fff">
        <path d="M 279.2760314941406 61.4023551940918 L 2.045974969863892 61.4023551940918 C 1.46922504901886 61.4023551940918 1.00001072883606 60.93314361572266 1.00001072883606 60.35639190673828 L 1.00001072883606 2.045963287353516 C 1.00001072883606 1.469213366508484 1.46922504901886 0.9999990463256836 2.045974969863892 0.9999990463256836 L 279.2760314941406 0.9999990463256836 C 279.852783203125 0.9999990463256836 280.322021484375 1.469213366508484 280.322021484375 2.045963287353516 L 280.322021484375 60.35639190673828 C 280.322021484375 60.93314361572266 279.852783203125 61.4023551940918 279.2760314941406 61.4023551940918 Z" stroke="none"/>
        <path d="M 2.04595947265625 1.999984741210938 C 2.0206298828125 1.999984741210938 2 2.020637512207031 2 2.045986175537109 L 2 60.35636901855469 C 2 60.38171768188477 2.0206298828125 60.40237045288086 2.04595947265625 60.40237045288086 L 279.2760009765625 60.40237045288086 C 279.3013610839844 60.40237045288086 279.322021484375 60.38171768188477 279.322021484375 60.35636901855469 L 279.322021484375 2.045986175537109 C 279.322021484375 2.020637512207031 279.3013610839844 1.999984741210938 279.2760009765625 1.999984741210938 L 2.04595947265625 1.999984741210938 M 2.04595947265625 -1.52587890625e-05 L 279.2760009765625 -1.52587890625e-05 C 280.406005859375 -1.52587890625e-05 281.322021484375 0.9160232543945313 281.322021484375 2.045986175537109 L 281.322021484375 60.35636901855469 C 281.322021484375 61.48633193969727 280.406005859375 62.40237045288086 279.2760009765625 62.40237045288086 L 2.04595947265625 62.40237045288086 C 0.916015625 62.40237045288086 0 61.48633193969727 0 60.35636901855469 L 0 2.045986175537109 C 0 0.9160232543945313 0.916015625 -1.52587890625e-05 2.04595947265625 -1.52587890625e-05 Z" stroke="none" fill="#3c9ac8"/>
      </g>
      <ellipse id="white_circle-2" data-name="white circle" cx="29.5" cy="30.5" rx="29.5" ry="30.5" transform="translate(111.322 38.158)" fill="#fff"/>
      <circle id="inner_circle-2" data-name="inner circle" cx="24" cy="24" r="24" transform="translate(116.322 44.158)" fill="#49b6eb"/>
      <g id="Delete" transform="translate(234.451 19.972)">
        <path id="Path_2" data-name="Path 2" d="M6.375,24.527a2.729,2.729,0,0,0,2.75,2.691h11a2.729,2.729,0,0,0,2.75-2.691V11.073a2.729,2.729,0,0,0-2.75-2.691h-11a2.729,2.729,0,0,0-2.75,2.691Zm4.358-10.535a1.39,1.39,0,0,1,1.938,0L14.623,15.9l1.952-1.911a1.39,1.39,0,0,1,1.938,0,1.32,1.32,0,0,1,0,1.9L16.562,17.8l1.952,1.911a1.32,1.32,0,0,1,0,1.9,1.39,1.39,0,0,1-1.938,0L14.623,19.7l-1.952,1.911a1.39,1.39,0,0,1-1.938,0,1.32,1.32,0,0,1,0-1.9L12.685,17.8l-1.952-1.911A1.32,1.32,0,0,1,10.733,13.992Zm8.7-9.647-.976-.955A1.4,1.4,0,0,0,17.5,3H11.75a1.4,1.4,0,0,0-.962.39l-.976.955H6.375a1.346,1.346,0,1,0,0,2.691h16.5a1.346,1.346,0,1,0,0-2.691Z" transform="translate(-5 -3)" fill="#db4848"/>
      </g>
      <g id="Lock" transform="translate(189.741 18.982)">
        <path id="Path_3" data-name="Path 3" d="M8.26,13.344A1.26,1.26,0,0,1,7,12.084H7V8.3A6.3,6.3,0,0,1,17.754,3.838,6.416,6.416,0,0,1,19.4,6.728a1.26,1.26,0,1,1-2.439.636l0-.008a3.872,3.872,0,0,0-.991-1.738A3.784,3.784,0,0,0,9.521,8.3v3.781a1.26,1.26,0,0,1-1.26,1.26Z" transform="translate(-3.219 -2)" fill="#ababab"/>
        <path id="Path_4" data-name="Path 4" d="M12.26,19.3A1.26,1.26,0,0,1,11,18.042h0V14.26a1.26,1.26,0,0,1,2.521,0v3.781a1.26,1.26,0,0,1-1.26,1.26Z" transform="translate(-2.177 0.864)" fill="#f5f5f5"/>
        <path id="Path_5" data-name="Path 5" d="M20.385,9H7.781A3.781,3.781,0,0,0,4,12.781V21.6a3.781,3.781,0,0,0,3.781,3.781h12.6A3.781,3.781,0,0,0,24.167,21.6V12.781A3.781,3.781,0,0,0,20.385,9ZM15.344,19.083a1.26,1.26,0,0,1-1.26,1.26h0a1.26,1.26,0,0,1-1.26-1.26h0V15.3a1.26,1.26,0,0,1,2.521,0Z" transform="translate(-4 -0.177)" fill="#ababab"/>
      </g>
      <g id="Text" transform="translate(24.514 15.043)">
        <g id="text-2" data-name="text" transform="translate(0 0)">
          <rect id="Rectangle_2" data-name="Rectangle 2" width="24" height="30" transform="translate(-0.191 0.115)" fill="#545454" opacity="0"/>
          <path id="Path_7" data-name="Path 7" d="M21.54,4H4.091A1.215,1.215,0,0,0,3,5.31V9.238a1.215,1.215,0,0,0,1.091,1.31,1.215,1.215,0,0,0,1.091-1.31V6.619h6.543V23.644H9.543a1.332,1.332,0,0,0,0,2.619h6.543a1.332,1.332,0,0,0,0-2.619H13.906V6.619h6.543V9.238a1.215,1.215,0,0,0,1.091,1.31,1.215,1.215,0,0,0,1.091-1.31V5.31A1.215,1.215,0,0,0,21.54,4Z" transform="translate(0.08 0.82)" fill="#545454"/>
        </g>
      </g>
      <path id="Color" d="M12.129,26.208a9.323,9.323,0,0,0,9.129-9.453C21.259,11.556,12.129,1,12.129,1S3,11.713,3,16.755A9.426,9.426,0,0,0,12.129,26.208Z" transform="translate(70.054 17.982)" fill="#49b6eb"/>
    </g>
  </g>
</svg>
