<svg xmlns="http://www.w3.org/2000/svg" xmlns:xlink="http://www.w3.org/1999/xlink" width="1192.868" height="1162.422" viewBox="0 0 1192.868 1162.422">
  <defs>
    <clipPath id="clip-path">
      <rect width="636" height="501" fill="none"/>
    </clipPath>
  </defs>
  <g id="Group_39" data-name="Group 39" transform="translate(-181.001 -0.372)">
    <path id="Path_16" data-name="Path 16" d="M2418.391,314.739c85.119-37.895,110.937-93.768,272.059-92.447s168.906,115.892,214.264,159.965,167.573,237.31,26.459,347.555-116.017,246.972-288.491,261.625-193.441-54.243-344.948,0-194.346-138.994-183.006-218.271,89.457-137.5,90.716-180.85-43.765-156.1,28.052-224.75S2333.272,352.633,2418.391,314.739Z" transform="matrix(0.53, 0.848, -0.848, 0.53, -25.894, -1909.343)" fill="#49b6eb"/>
    <path id="Path_95" data-name="Path 95" d="M-1577.676,1910.831c115.666-30.993,155.056,1.258,208.74,32.837s115.262,50.526,143.683-22.1-33.158-124.736-135.788-178.42-25.263-116.841-7.895-137.367,74.21-94.736,26.842-121.578-116.841-11.052-181.578,36.316-55.263,94.736-64.736,151.578-61.578,34.737-115.262,25.263-107.367,22.105-99.473,86.841-20.526,120-42.631,159.472-80.526,108.947,0,151.578S-1693.342,1941.824-1577.676,1910.831Z" transform="translate(2068 -1104)" fill="#69dbb7"/>
    <g id="Grid" transform="translate(527 350)" clip-path="url(#clip-path)">
      <g transform="translate(-100 -100)">
        <g id="Rectangle_1" data-name="Rectangle 1" transform="translate(153 89)" fill="none" stroke="#fff" stroke-linejoin="bevel" stroke-width="3">
          <rect width="110" height="110" stroke="none"/>
          <rect x="1.5" y="1.5" width="107" height="107" fill="none"/>
        </g>
        <g id="Rectangle_7" data-name="Rectangle 7" transform="translate(112 88)" fill="none" stroke="#fff" stroke-linejoin="bevel" stroke-width="3">
          <rect width="76" height="4" stroke="none"/>
          <rect x="1.5" y="1.5" width="73" height="1" fill="none"/>
        </g>
      </g>
      <g transform="translate(8 -100)">
        <g id="Rectangle_1-2" data-name="Rectangle 1" transform="translate(153 89)" fill="none" stroke="#fff" stroke-linejoin="bevel" stroke-width="3">
          <rect width="110" height="110" stroke="none"/>
          <rect x="1.5" y="1.5" width="107" height="107" fill="none"/>
        </g>
        <g id="Rectangle_7-2" data-name="Rectangle 7" transform="translate(112 88)" fill="none" stroke="#fff" stroke-linejoin="bevel" stroke-width="3">
          <rect width="76" height="4" stroke="none"/>
          <rect x="1.5" y="1.5" width="73" height="1" fill="none"/>
        </g>
      </g>
      <g transform="translate(116 -100)">
        <g id="Rectangle_1-3" data-name="Rectangle 1" transform="translate(153 89)" fill="none" stroke="#fff" stroke-linejoin="bevel" stroke-width="3">
          <rect width="110" height="110" stroke="none"/>
          <rect x="1.5" y="1.5" width="107" height="107" fill="none"/>
        </g>
        <g id="Rectangle_7-3" data-name="Rectangle 7" transform="translate(112 88)" fill="none" stroke="#fff" stroke-linejoin="bevel" stroke-width="3">
          <rect width="76" height="4" stroke="none"/>
          <rect x="1.5" y="1.5" width="73" height="1" fill="none"/>
        </g>
      </g>
      <g transform="translate(224 -100)">
        <g id="Rectangle_1-4" data-name="Rectangle 1" transform="translate(153 89)" fill="none" stroke="#fff" stroke-linejoin="bevel" stroke-width="3">
          <rect width="110" height="110" stroke="none"/>
          <rect x="1.5" y="1.5" width="107" height="107" fill="none"/>
        </g>
        <g id="Rectangle_7-4" data-name="Rectangle 7" transform="translate(112 88)" fill="none" stroke="#fff" stroke-linejoin="bevel" stroke-width="3">
          <rect width="76" height="4" stroke="none"/>
          <rect x="1.5" y="1.5" width="73" height="1" fill="none"/>
        </g>
      </g>
      <g transform="translate(332 -100)">
        <g id="Rectangle_1-5" data-name="Rectangle 1" transform="translate(153 89)" fill="none" stroke="#fff" stroke-linejoin="bevel" stroke-width="3">
          <rect width="110" height="110" stroke="none"/>
          <rect x="1.5" y="1.5" width="107" height="107" fill="none"/>
        </g>
        <g id="Rectangle_7-5" data-name="Rectangle 7" transform="translate(112 88)" fill="none" stroke="#fff" stroke-linejoin="bevel" stroke-width="3">
          <rect width="76" height="4" stroke="none"/>
          <rect x="1.5" y="1.5" width="73" height="1" fill="none"/>
        </g>
      </g>
      <g transform="translate(440 -100)">
        <g id="Rectangle_1-6" data-name="Rectangle 1" transform="translate(153 89)" fill="none" stroke="#fff" stroke-linejoin="bevel" stroke-width="3">
          <rect width="110" height="110" stroke="none"/>
          <rect x="1.5" y="1.5" width="107" height="107" fill="none"/>
        </g>
        <g id="Rectangle_7-6" data-name="Rectangle 7" transform="translate(112 88)" fill="none" stroke="#fff" stroke-linejoin="bevel" stroke-width="3">
          <rect width="76" height="4" stroke="none"/>
          <rect x="1.5" y="1.5" width="73" height="1" fill="none"/>
        </g>
      </g>
      <g transform="translate(-100 8)">
        <g id="Rectangle_1-7" data-name="Rectangle 1" transform="translate(153 89)" fill="none" stroke="#fff" stroke-linejoin="bevel" stroke-width="3">
          <rect width="110" height="110" stroke="none"/>
          <rect x="1.5" y="1.5" width="107" height="107" fill="none"/>
        </g>
        <g id="Rectangle_7-7" data-name="Rectangle 7" transform="translate(112 88)" fill="none" stroke="#fff" stroke-linejoin="bevel" stroke-width="3">
          <rect width="76" height="4" stroke="none"/>
          <rect x="1.5" y="1.5" width="73" height="1" fill="none"/>
        </g>
      </g>
      <g transform="translate(8 8)">
        <g id="Rectangle_1-8" data-name="Rectangle 1" transform="translate(153 89)" fill="none" stroke="#fff" stroke-linejoin="bevel" stroke-width="3">
          <rect width="110" height="110" stroke="none"/>
          <rect x="1.5" y="1.5" width="107" height="107" fill="none"/>
        </g>
        <g id="Rectangle_7-8" data-name="Rectangle 7" transform="translate(112 88)" fill="none" stroke="#fff" stroke-linejoin="bevel" stroke-width="3">
          <rect width="76" height="4" stroke="none"/>
          <rect x="1.5" y="1.5" width="73" height="1" fill="none"/>
        </g>
      </g>
      <g transform="translate(116 8)">
        <g id="Rectangle_1-9" data-name="Rectangle 1" transform="translate(153 89)" fill="none" stroke="#fff" stroke-linejoin="bevel" stroke-width="3">
          <rect width="110" height="110" stroke="none"/>
          <rect x="1.5" y="1.5" width="107" height="107" fill="none"/>
        </g>
        <g id="Rectangle_7-9" data-name="Rectangle 7" transform="translate(112 88)" fill="none" stroke="#fff" stroke-linejoin="bevel" stroke-width="3">
          <rect width="76" height="4" stroke="none"/>
          <rect x="1.5" y="1.5" width="73" height="1" fill="none"/>
        </g>
      </g>
      <g transform="translate(224 8)">
        <g id="Rectangle_1-10" data-name="Rectangle 1" transform="translate(153 89)" fill="none" stroke="#fff" stroke-linejoin="bevel" stroke-width="3">
          <rect width="110" height="110" stroke="none"/>
          <rect x="1.5" y="1.5" width="107" height="107" fill="none"/>
        </g>
        <g id="Rectangle_7-10" data-name="Rectangle 7" transform="translate(112 88)" fill="none" stroke="#fff" stroke-linejoin="bevel" stroke-width="3">
          <rect width="76" height="4" stroke="none"/>
          <rect x="1.5" y="1.5" width="73" height="1" fill="none"/>
        </g>
      </g>
      <g transform="translate(332 8)">
        <g id="Rectangle_1-11" data-name="Rectangle 1" transform="translate(153 89)" fill="none" stroke="#fff" stroke-linejoin="bevel" stroke-width="3">
          <rect width="110" height="110" stroke="none"/>
          <rect x="1.5" y="1.5" width="107" height="107" fill="none"/>
        </g>
        <g id="Rectangle_7-11" data-name="Rectangle 7" transform="translate(112 88)" fill="none" stroke="#fff" stroke-linejoin="bevel" stroke-width="3">
          <rect width="76" height="4" stroke="none"/>
          <rect x="1.5" y="1.5" width="73" height="1" fill="none"/>
        </g>
      </g>
      <g transform="translate(440 8)">
        <g id="Rectangle_1-12" data-name="Rectangle 1" transform="translate(153 89)" fill="none" stroke="#fff" stroke-linejoin="bevel" stroke-width="3">
          <rect width="110" height="110" stroke="none"/>
          <rect x="1.5" y="1.5" width="107" height="107" fill="none"/>
        </g>
        <g id="Rectangle_7-12" data-name="Rectangle 7" transform="translate(112 88)" fill="none" stroke="#fff" stroke-linejoin="bevel" stroke-width="3">
          <rect width="76" height="4" stroke="none"/>
          <rect x="1.5" y="1.5" width="73" height="1" fill="none"/>
        </g>
      </g>
      <g transform="translate(-100 116)">
        <g id="Rectangle_1-13" data-name="Rectangle 1" transform="translate(153 89)" fill="none" stroke="#fff" stroke-linejoin="bevel" stroke-width="3">
          <rect width="110" height="110" stroke="none"/>
          <rect x="1.5" y="1.5" width="107" height="107" fill="none"/>
        </g>
        <g id="Rectangle_7-13" data-name="Rectangle 7" transform="translate(112 88)" fill="none" stroke="#fff" stroke-linejoin="bevel" stroke-width="3">
          <rect width="76" height="4" stroke="none"/>
          <rect x="1.5" y="1.5" width="73" height="1" fill="none"/>
        </g>
      </g>
      <g transform="translate(8 116)">
        <g id="Rectangle_1-14" data-name="Rectangle 1" transform="translate(153 89)" fill="none" stroke="#fff" stroke-linejoin="bevel" stroke-width="3">
          <rect width="110" height="110" stroke="none"/>
          <rect x="1.5" y="1.5" width="107" height="107" fill="none"/>
        </g>
        <g id="Rectangle_7-14" data-name="Rectangle 7" transform="translate(112 88)" fill="none" stroke="#fff" stroke-linejoin="bevel" stroke-width="3">
          <rect width="76" height="4" stroke="none"/>
          <rect x="1.5" y="1.5" width="73" height="1" fill="none"/>
        </g>
      </g>
      <g transform="translate(116 116)">
        <g id="Rectangle_1-15" data-name="Rectangle 1" transform="translate(153 89)" fill="none" stroke="#fff" stroke-linejoin="bevel" stroke-width="3">
          <rect width="110" height="110" stroke="none"/>
          <rect x="1.5" y="1.5" width="107" height="107" fill="none"/>
        </g>
        <g id="Rectangle_7-15" data-name="Rectangle 7" transform="translate(112 88)" fill="none" stroke="#fff" stroke-linejoin="bevel" stroke-width="3">
          <rect width="76" height="4" stroke="none"/>
          <rect x="1.5" y="1.5" width="73" height="1" fill="none"/>
        </g>
      </g>
      <g transform="translate(224 116)">
        <g id="Rectangle_1-16" data-name="Rectangle 1" transform="translate(153 89)" fill="none" stroke="#fff" stroke-linejoin="bevel" stroke-width="3">
          <rect width="110" height="110" stroke="none"/>
          <rect x="1.5" y="1.5" width="107" height="107" fill="none"/>
        </g>
        <g id="Rectangle_7-16" data-name="Rectangle 7" transform="translate(112 88)" fill="none" stroke="#fff" stroke-linejoin="bevel" stroke-width="3">
          <rect width="76" height="4" stroke="none"/>
          <rect x="1.5" y="1.5" width="73" height="1" fill="none"/>
        </g>
      </g>
      <g transform="translate(332 116)">
        <g id="Rectangle_1-17" data-name="Rectangle 1" transform="translate(153 89)" fill="none" stroke="#fff" stroke-linejoin="bevel" stroke-width="3">
          <rect width="110" height="110" stroke="none"/>
          <rect x="1.5" y="1.5" width="107" height="107" fill="none"/>
        </g>
        <g id="Rectangle_7-17" data-name="Rectangle 7" transform="translate(112 88)" fill="none" stroke="#fff" stroke-linejoin="bevel" stroke-width="3">
          <rect width="76" height="4" stroke="none"/>
          <rect x="1.5" y="1.5" width="73" height="1" fill="none"/>
        </g>
      </g>
      <g transform="translate(440 116)">
        <g id="Rectangle_1-18" data-name="Rectangle 1" transform="translate(153 89)" fill="none" stroke="#fff" stroke-linejoin="bevel" stroke-width="3">
          <rect width="110" height="110" stroke="none"/>
          <rect x="1.5" y="1.5" width="107" height="107" fill="none"/>
        </g>
        <g id="Rectangle_7-18" data-name="Rectangle 7" transform="translate(112 88)" fill="none" stroke="#fff" stroke-linejoin="bevel" stroke-width="3">
          <rect width="76" height="4" stroke="none"/>
          <rect x="1.5" y="1.5" width="73" height="1" fill="none"/>
        </g>
      </g>
      <g transform="translate(-100 224)">
        <g id="Rectangle_1-19" data-name="Rectangle 1" transform="translate(153 89)" fill="none" stroke="#fff" stroke-linejoin="bevel" stroke-width="3">
          <rect width="110" height="110" stroke="none"/>
          <rect x="1.5" y="1.5" width="107" height="107" fill="none"/>
        </g>
        <g id="Rectangle_7-19" data-name="Rectangle 7" transform="translate(112 88)" fill="none" stroke="#fff" stroke-linejoin="bevel" stroke-width="3">
          <rect width="76" height="4" stroke="none"/>
          <rect x="1.5" y="1.5" width="73" height="1" fill="none"/>
        </g>
      </g>
      <g transform="translate(8 224)">
        <g id="Rectangle_1-20" data-name="Rectangle 1" transform="translate(153 89)" fill="none" stroke="#fff" stroke-linejoin="bevel" stroke-width="3">
          <rect width="110" height="110" stroke="none"/>
          <rect x="1.5" y="1.5" width="107" height="107" fill="none"/>
        </g>
        <g id="Rectangle_7-20" data-name="Rectangle 7" transform="translate(112 88)" fill="none" stroke="#fff" stroke-linejoin="bevel" stroke-width="3">
          <rect width="76" height="4" stroke="none"/>
          <rect x="1.5" y="1.5" width="73" height="1" fill="none"/>
        </g>
      </g>
      <g transform="translate(116 224)">
        <g id="Rectangle_1-21" data-name="Rectangle 1" transform="translate(153 89)" fill="none" stroke="#fff" stroke-linejoin="bevel" stroke-width="3">
          <rect width="110" height="110" stroke="none"/>
          <rect x="1.5" y="1.5" width="107" height="107" fill="none"/>
        </g>
        <g id="Rectangle_7-21" data-name="Rectangle 7" transform="translate(112 88)" fill="none" stroke="#fff" stroke-linejoin="bevel" stroke-width="3">
          <rect width="76" height="4" stroke="none"/>
          <rect x="1.5" y="1.5" width="73" height="1" fill="none"/>
        </g>
      </g>
      <g transform="translate(224 224)">
        <g id="Rectangle_1-22" data-name="Rectangle 1" transform="translate(153 89)" fill="none" stroke="#fff" stroke-linejoin="bevel" stroke-width="3">
          <rect width="110" height="110" stroke="none"/>
          <rect x="1.5" y="1.5" width="107" height="107" fill="none"/>
        </g>
        <g id="Rectangle_7-22" data-name="Rectangle 7" transform="translate(112 88)" fill="none" stroke="#fff" stroke-linejoin="bevel" stroke-width="3">
          <rect width="76" height="4" stroke="none"/>
          <rect x="1.5" y="1.5" width="73" height="1" fill="none"/>
        </g>
      </g>
      <g transform="translate(332 224)">
        <g id="Rectangle_1-23" data-name="Rectangle 1" transform="translate(153 89)" fill="none" stroke="#fff" stroke-linejoin="bevel" stroke-width="3">
          <rect width="110" height="110" stroke="none"/>
          <rect x="1.5" y="1.5" width="107" height="107" fill="none"/>
        </g>
        <g id="Rectangle_7-23" data-name="Rectangle 7" transform="translate(112 88)" fill="none" stroke="#fff" stroke-linejoin="bevel" stroke-width="3">
          <rect width="76" height="4" stroke="none"/>
          <rect x="1.5" y="1.5" width="73" height="1" fill="none"/>
        </g>
      </g>
      <g transform="translate(440 224)">
        <g id="Rectangle_1-24" data-name="Rectangle 1" transform="translate(153 89)" fill="none" stroke="#fff" stroke-linejoin="bevel" stroke-width="3">
          <rect width="110" height="110" stroke="none"/>
          <rect x="1.5" y="1.5" width="107" height="107" fill="none"/>
        </g>
        <g id="Rectangle_7-24" data-name="Rectangle 7" transform="translate(112 88)" fill="none" stroke="#fff" stroke-linejoin="bevel" stroke-width="3">
          <rect width="76" height="4" stroke="none"/>
          <rect x="1.5" y="1.5" width="73" height="1" fill="none"/>
        </g>
      </g>
      <g transform="translate(-100 332)">
        <g id="Rectangle_1-25" data-name="Rectangle 1" transform="translate(153 89)" fill="none" stroke="#fff" stroke-linejoin="bevel" stroke-width="3">
          <rect width="110" height="110" stroke="none"/>
          <rect x="1.5" y="1.5" width="107" height="107" fill="none"/>
        </g>
        <g id="Rectangle_7-25" data-name="Rectangle 7" transform="translate(112 88)" fill="none" stroke="#fff" stroke-linejoin="bevel" stroke-width="3">
          <rect width="76" height="4" stroke="none"/>
          <rect x="1.5" y="1.5" width="73" height="1" fill="none"/>
        </g>
      </g>
      <g transform="translate(8 332)">
        <g id="Rectangle_1-26" data-name="Rectangle 1" transform="translate(153 89)" fill="none" stroke="#fff" stroke-linejoin="bevel" stroke-width="3">
          <rect width="110" height="110" stroke="none"/>
          <rect x="1.5" y="1.5" width="107" height="107" fill="none"/>
        </g>
        <g id="Rectangle_7-26" data-name="Rectangle 7" transform="translate(112 88)" fill="none" stroke="#fff" stroke-linejoin="bevel" stroke-width="3">
          <rect width="76" height="4" stroke="none"/>
          <rect x="1.5" y="1.5" width="73" height="1" fill="none"/>
        </g>
      </g>
      <g transform="translate(116 332)">
        <g id="Rectangle_1-27" data-name="Rectangle 1" transform="translate(153 89)" fill="none" stroke="#fff" stroke-linejoin="bevel" stroke-width="3">
          <rect width="110" height="110" stroke="none"/>
          <rect x="1.5" y="1.5" width="107" height="107" fill="none"/>
        </g>
        <g id="Rectangle_7-27" data-name="Rectangle 7" transform="translate(112 88)" fill="none" stroke="#fff" stroke-linejoin="bevel" stroke-width="3">
          <rect width="76" height="4" stroke="none"/>
          <rect x="1.5" y="1.5" width="73" height="1" fill="none"/>
        </g>
      </g>
      <g transform="translate(224 332)">
        <g id="Rectangle_1-28" data-name="Rectangle 1" transform="translate(153 89)" fill="none" stroke="#fff" stroke-linejoin="bevel" stroke-width="3">
          <rect width="110" height="110" stroke="none"/>
          <rect x="1.5" y="1.5" width="107" height="107" fill="none"/>
        </g>
        <g id="Rectangle_7-28" data-name="Rectangle 7" transform="translate(112 88)" fill="none" stroke="#fff" stroke-linejoin="bevel" stroke-width="3">
          <rect width="76" height="4" stroke="none"/>
          <rect x="1.5" y="1.5" width="73" height="1" fill="none"/>
        </g>
      </g>
      <g transform="translate(332 332)">
        <g id="Rectangle_1-29" data-name="Rectangle 1" transform="translate(153 89)" fill="none" stroke="#fff" stroke-linejoin="bevel" stroke-width="3">
          <rect width="110" height="110" stroke="none"/>
          <rect x="1.5" y="1.5" width="107" height="107" fill="none"/>
        </g>
        <g id="Rectangle_7-29" data-name="Rectangle 7" transform="translate(112 88)" fill="none" stroke="#fff" stroke-linejoin="bevel" stroke-width="3">
          <rect width="76" height="4" stroke="none"/>
          <rect x="1.5" y="1.5" width="73" height="1" fill="none"/>
        </g>
      </g>
      <g transform="translate(440 332)">
        <g id="Rectangle_1-30" data-name="Rectangle 1" transform="translate(153 89)" fill="none" stroke="#fff" stroke-linejoin="bevel" stroke-width="3">
          <rect width="110" height="110" stroke="none"/>
          <rect x="1.5" y="1.5" width="107" height="107" fill="none"/>
        </g>
        <g id="Rectangle_7-30" data-name="Rectangle 7" transform="translate(112 88)" fill="none" stroke="#fff" stroke-linejoin="bevel" stroke-width="3">
          <rect width="76" height="4" stroke="none"/>
          <rect x="1.5" y="1.5" width="73" height="1" fill="none"/>
        </g>
      </g>
    </g>
  </g>
</svg>
